<?xml version="1.0" standalone="no"?>
<!DOCTYPE svg PUBLIC "-//W3C//DTD SVG 20010904//EN"
 "http://www.w3.org/TR/2001/REC-SVG-20010904/DTD/svg10.dtd">
<svg version="1.0" xmlns="http://www.w3.org/2000/svg"
 width="400.000000pt" height="220.000000pt" viewBox="0 0 400.000000 220.000000"
 preserveAspectRatio="xMidYMid meet">
<metadata>
Created by potrace 1.13, written by Peter Selinger 2001-2015
</metadata>
<g transform="translate(0.000000,220.000000) scale(0.100000,-0.100000)"
fill="#000000" stroke="none">
<path d="M2335 2181 c-101 -46 -142 -159 -94 -258 49 -102 188 -137 284 -72
42 29 85 109 85 158 -1 136 -150 230 -275 172z"/>
<path d="M1337 1913 c-19 -22 -727 -1538 -727 -1558 0 -32 17 -48 91 -86 77
-38 102 -45 132 -33 9 3 178 355 377 781 311 667 361 780 354 802 -7 19 -32
38 -89 68 -88 47 -114 52 -138 26z"/>
<path d="M3315 1716 c-148 -37 -265 -129 -353 -276 -11 -19 -33 -71 -48 -115
-36 -105 -45 -299 -20 -418 54 -263 227 -453 445 -488 105 -16 241 17 332 81
l29 21 0 -230 c0 -286 -6 -276 169 -270 70 3 93 8 110 23 l21 19 0 799 c0 785
0 798 -20 818 -18 18 -33 20 -128 20 -93 0 -111 -3 -125 -18 -10 -10 -17 -24
-17 -30 0 -7 -24 1 -56 19 -98 56 -227 73 -339 45z m234 -282 c104 -43 141
-140 141 -369 0 -187 -43 -290 -142 -339 -97 -48 -189 -28 -266 59 -51 58 -78
128 -92 238 -16 133 14 279 72 347 25 30 83 68 118 79 42 12 120 5 169 -15z"/>
<path d="M1856 1689 c-25 -20 -26 -24 -26 -119 0 -149 -8 -144 234 -148 l196
-4 0 -446 c0 -246 -4 -474 -10 -506 -18 -112 -88 -176 -190 -176 -59 0 -120
27 -147 66 -51 73 -65 84 -99 84 -31 0 -39 -8 -104 -93 -83 -111 -86 -129 -32
-189 227 -252 692 -187 836 118 53 112 56 153 56 795 l0 590 -25 24 -24 25
-319 0 c-308 0 -320 -1 -346 -21z"/>
<path d="M115 804 c-70 -38 -114 -106 -115 -174 0 -49 37 -118 83 -154 35 -28
46 -31 111 -31 62 0 78 4 114 28 110 72 110 242 1 314 -52 34 -147 42 -194 17z"/>
</g>
</svg>
