<?xml version="1.0" standalone="no"?>
<!DOCTYPE svg PUBLIC "-//W3C//DTD SVG 20010904//EN"
 "http://www.w3.org/TR/2001/REC-SVG-20010904/DTD/svg10.dtd">
<svg version="1.0" xmlns="http://www.w3.org/2000/svg"
 width="560.000000pt" height="560.000000pt" viewBox="0 0 560.000000 560.000000"
 preserveAspectRatio="xMidYMid meet">
<metadata>
Created by potrace 1.13, written by Peter Selinger 2001-2015
</metadata>
<g transform="translate(0.000000,560.000000) scale(0.100000,-0.100000)"
fill="#000000" stroke="none">
<path d="M2154 4051 c-96 -44 -147 -120 -146 -222 0 -68 25 -121 80 -171 51
-46 99 -61 178 -56 116 7 202 93 211 211 5 58 2 73 -21 121 -56 115 -191 167
-302 117z"/>
<path d="M3355 3478 c-27 -5 -87 -27 -132 -49 -187 -90 -313 -245 -379 -466
-35 -119 -44 -326 -20 -456 58 -307 234 -532 476 -608 85 -27 225 -29 301 -4
56 18 148 63 187 91 l22 16 0 -259 c0 -268 6 -315 40 -333 10 -6 79 -10 153
-10 127 0 135 1 155 23 l22 23 0 981 c0 950 -1 982 -19 1004 -18 23 -27 24
-148 27 -119 3 -130 2 -156 -18 -15 -12 -27 -28 -27 -36 0 -19 -17 -18 -48 5
-101 71 -272 99 -427 69z m278 -350 c61 -26 122 -96 143 -162 22 -69 31 -373
14 -471 -30 -167 -133 -265 -279 -265 -192 0 -322 193 -323 483 0 194 45 313
149 388 87 62 192 71 296 27z"/>
<path d="M1590 3463 c-8 -3 -25 -15 -37 -26 -21 -19 -23 -29 -23 -143 0 -180
-19 -168 277 -174 l238 -5 0 -605 c0 -674 4 -637 -70 -719 -64 -70 -171 -90
-260 -47 -66 33 -89 53 -114 103 -24 49 -46 63 -95 63 -34 0 -40 -6 -127 -122
-79 -105 -90 -126 -85 -151 16 -78 161 -190 316 -243 44 -15 83 -19 195 -18
132 0 145 2 224 32 46 17 105 45 132 63 76 49 163 149 204 235 65 136 65 142
65 968 l0 743 -26 24 -26 24 -386 2 c-213 1 -394 -1 -402 -4z"/>
</g>
</svg>
