<?xml version="1.0" ?><!DOCTYPE svg  PUBLIC '-//W3C//DTD SVG 1.1//EN'  'http://www.w3.org/Graphics/SVG/1.1/DTD/svg11.dtd'><svg enable-background="new 0 0 128 128" height="128px" id="Layer_1" version="1.1" viewBox="0 0 128 128" width="128px" xml:space="preserve" xmlns="http://www.w3.org/2000/svg" xmlns:xlink="http://www.w3.org/1999/xlink"><path d="M64.049,114.172v-2l-0.006,2c-27.642,0-50.129-22.486-50.129-50.128c0-27.642,22.487-50.13,50.129-50.13  s50.129,22.488,50.129,50.13C114.172,91.686,91.687,114.172,64.049,114.172z M64.043,17.914c-25.436,0-46.129,20.694-46.129,46.13  c0,25.436,20.693,46.128,46.129,46.128h0.006c25.433,0,46.123-20.692,46.123-46.128C110.172,38.608,89.479,17.914,64.043,17.914z"/><g><path d="M64.043,74.354c-1.104,0-2-0.896-2-2v-9.756c0-1.104,0.896-2,2-2c5.27,0,9.557-4.286,9.557-9.556   c0-5.271-4.287-9.56-9.557-9.56s-9.557,4.289-9.557,9.56c0,1.104-0.896,2-2,2s-2-0.896-2-2c0-7.477,6.081-13.56,13.557-13.56   S77.6,43.565,77.6,51.042c0,6.796-5.026,12.439-11.557,13.409v7.903C66.043,73.458,65.147,74.354,64.043,74.354z"/><circle cx="64.042" cy="85.098" r="3.796"/></g></svg>